# AST/ASF file generated using VICON BodyLanguage
# -----------------------------------------------
:version 1.10
:name VICON
:units
  mass 1.0
  length 0.45
  angle deg
:documentation
   .ast/.asf automatically generated from VICON data using
   VICON BodyBuilder and BodyLanguage model FoxedUp or BRILLIANT.MOD
:root
   order TX TY TZ RX RY RZ
   axis XYZ
   position 0 0 0  
   orientation 0 0 0 
:bonedata
  begin
     id 1 
     name lhipjoint
     direction 0.630082 -0.636569 0.44472 
     length 2.82754 
     axis 0 0 0  XYZ
  end
  begin
     id 2 
     name lfemur
     direction 0.34202 -0.939693 0  
     length 7.26371  
     axis 0 0 20  XYZ
    dof rx ry rz
    limits (-160.0 20.0)
           (-70.0 70.0)
           (-60.0 70.0)
  end
  begin
     id 3 
     name ltibia
     direction 0.34202 -0.939693 0   
     length 7.88616   
     axis 0 0 20   XYZ
    dof rx
    limits (-10.0 170.0)
  end
  begin
     id 4 
     name lfoot
     direction 0.0603448 -0.165796 0.984312   
     length 1.77861   
     axis -90 7.62852e-016 20   XYZ
    dof rx rz
    limits (-45.0 90.0)
           (-70.0 20.0)
  end
  begin
     id 5 
     name ltoes
     direction 1.53577e-011 -4.21876e-011 1   
     length 0.902235   
     axis -90 7.62852e-016 20   XYZ
    dof rx
    limits (-90.0 20.0)
  end
  begin
     id 6 
     name rhipjoint
     direction -0.656778 -0.61817 0.431866   
     length 2.9117  
     axis 0 0 0  XYZ 
  end
  begin
     id 7 
     name rfemur
     direction -0.34202 -0.939693 0   
     length 6.81603   
     axis 0 0 -20   XYZ
    dof rx ry rz
    limits (-160.0 20.0)
           (-70.0 70.0)
           (-70.0 60.0)
  end
  begin
     id 8 
     name rtibia
     direction -0.34202 -0.939693 0   
     length 8.05997   
     axis 0 0 -20   XYZ
    dof rx
    limits (-10.0 170.0)
 end
 begin
     id 9 
     name rfoot
     direction -0.0862404 -0.236944 0.967688   
     length 1.84899  
     axis -90 -7.62852e-016 -20   XYZ
    dof rx rz
    limits (-45.0 90.0)
           (-20.0 70.0)
  end
  begin
     id 10 
     name rtoes
     direction -1.53561e-011 -4.21798e-011 1   
     length 0.931579   
     axis -90 -7.62852e-016 -20   XYZ
    dof rx
    limits (-90.0 20.0)
  end
  begin
     id 11 
     name lowerback
     direction -0.0110203 0.991769 -0.127564   
     length 2.05686   
     axis 0 0 0   XYZ
    dof rx ry rz
    limits (-20.0 45.0)
           (-30.0 30.0)
           (-30.0 30.0)
  end
  begin
     id 12 
     name upperback
     direction 0.0109719 0.99993 -0.00432479   
     length 2.06234   
     axis 0 0 0   XYZ
    dof rx ry rz
    limits (-20.0 45.0)
           (-30.0 30.0)
           (-30.0 30.0)
  end
  begin
     id 13 
     name thorax
     direction 0.0173308 0.998351 0.0547306   
     length 2.09856   
     axis 0 0 0   XYZ
    dof rx ry rz
    limits (-20.0 45.0)
           (-30.0 30.0)
           (-30.0 30.0)
  end
  begin
     id 14 
     name lowerneck
     direction -0.0311736 0.989033 0.144366   
     length 1.98151   
     axis 0 0 0   XYZ
    dof rx ry rz
    limits (-20.0 45.0)
           (-30.0 30.0)
           (-30.0 30.0)
  end
  begin
     id 15 
     name upperneck
     direction 0.0421057 0.975772 -0.214698   
     length 2.01457   
     axis 0 0 0   XYZ
    dof rx ry rz
    limits (-20.0 45.0)
           (-30.0 30.0)
           (-30.0 30.0)
  end
  begin
     id 16
     name head
     direction 0.0136911 0.995958 -0.0887718  
     length 2.03562  
     axis 0 0 0   XYZ
    dof rx ry rz
    limits (-20.0 45.0)
           (-30.0 30.0)
           (-30.0 30.0)
  end
  begin
     id 17 
     name lclavicle
     direction 0.915335 0.396201 0.0720134  
     length 4.16217  
     axis 0 0 0   XYZ
    dof ry rz
    limits (-20.0 10.0)
           (0.0 20.0)
  end
  begin
     id 18 
     name lhumerus
     direction 1 -4.48965e-011 6.383e-018   
     length 4.93042   
     axis -180 -30 -90   XYZ
    dof rx ry rz
    limits (-60.0 90.0)
           (-90.0 90.0)
           (-90.0 90.0)
  end
  begin
     id 19
     name lradius
     direction 1 -4.48972e-011 8.8689e-027   
     length 3.68177   
     axis -180 -30 -90   XYZ
    dof rx
    limits (-10.0 170.0)
  end
  begin
     id 20
     name lwrist
     direction 1 -4.48953e-011 1.17971e-026   
     length 1.84089   
     axis -7.69454e-015 90 90   XYZ
    dof ry
    limits (-180.0 0.0)
 end
  begin
     id 21 
     name lhand
     direction 1 -4.49027e-011 2.35802e-026   
     length 0.721479   
     axis -1.50533e-014 90 90   XYZ
    dof rx rz
    limits (-90.0 90.0)
           (-45.0 45.0)
  end
  begin
     id 22 
     name lfingers
     direction 1 -4.48915e-011 4.72027e-026   
     length 0.581675   
     axis -3.01059e-014 90 90   XYZ
    dof rx
    limits (0.0 90.0)
  end
  begin
     id 23
     name lthumb
     direction 0.707107 -6.34948e-011 0.707107   
     length 0.835172   
     axis -90 45 -5.12164e-014   XYZ
    dof rx rz
    limits (-45.0 45.0)
           (-45.0 45.0)
  end
  begin
     id 24 
     name rclavicle
     direction -0.882781 0.469197 0.0234974   
     length 3.95647  
     axis 0 0 0   XYZ 
    dof ry rz
    limits (-10.0 20.0)
           (-20.0 0.0)
  end
  begin
     id 25 
     name rhumerus
     direction -1 -4.48965e-011 -1.54906e-018  
     length 5.07905   
     axis -180 30 90   XYZ
    dof rx ry rz
    limits (-90.0 60.0)
           (-90.0 90.0)
           (-90.0 90.0)
  end
  begin
     id 26 
     name rradius
     direction -1 -4.48972e-011 5.47489e-027   
     length 3.54394   
     axis -180 30 90   XYZ
    dof rx
    limits (-10.0 170.0)
  end
  begin
     id 27 
     name rwrist
     direction -1 -4.48955e-011 1.17969e-026   
     length 1.77197   
     axis -7.69454e-015 -90 -90   XYZ
    dof ry
    limits (-180.0 0.0)
  end
  begin
     id 28
     name rhand
     direction -1 -4.48982e-011 2.35888e-026   
     length 0.681156   
     axis -1.50533e-014 -90 -90   XYZ
    dof rx rz
    limits (-90.0 90.0)
           (-45.0 45.0)
  end
  begin
     id 29
     name rfingers
     direction -1 -4.48955e-011 4.71877e-026   
     length 0.549165   
     axis -3.01059e-014 -90 -90   XYZ
    dof rx
    limits (0.0 90.0)
  end
  begin
     id 30
     name rthumb
     direction -0.707107 -6.3491e-011 0.707107   
     length 0.788495   
     axis -90 -45 5.12164e-014   XYZ
    dof rx rz
    limits (-45.0 45.0)
           (-45.0 45.0)
  end
:hierarchy
  begin
    root lhipjoint rhipjoint lowerback
    lhipjoint lfemur
    lfemur ltibia
    ltibia lfoot
    lfoot ltoes
    rhipjoint rfemur
    rfemur rtibia
    rtibia rfoot
    rfoot rtoes
    lowerback upperback
    upperback thorax
    thorax lowerneck lclavicle rclavicle
    lowerneck upperneck
    upperneck head
    lclavicle lhumerus
    lhumerus lradius
    lradius lwrist
    lwrist lhand lthumb
    lhand lfingers
    rclavicle rhumerus
    rhumerus rradius
    rradius rwrist
    rwrist rhand rthumb
    rhand rfingers
  end

#!OML:ASF H:\Bending\Project 1\Capture day 1\Session 1\Subject.ASF
:FULLY-SPECIFIED
:DEGREES
208
root -9.50585 17.9037 -16.1503 378.169 92.5863 373.866
lowerback 6.05729 -0.644351 -0.415035
upperback -3.62891 -0.679194 2.6824
thorax -7.16753 -0.221344 3.13102
lowerneck -24.6791 -3.34471 -5.72649
upperneck 31.9778 -3.37275 3.70139
head 15.6046 -1.39414 1.9204
rclavicle -9.95787e-015 3.18055e-015
rhumerus -36.0936 22.413 -94.6308
rradius 98.0577
rwrist 1.01009
rhand -33.5169 -26.1625
rfingers 7.12502
rthumb -6.71318 -56.0361
lclavicle -9.95787e-015 3.18055e-015
lhumerus -37.6854 -21.5114 99.4702
lradius 103.595
lwrist 41.5615
lhand -40.9811 14.2276
lfingers 7.12502
lthumb -13.9134 43.7422
rfemur 6.52226 3.33227 14.2893
rtibia 0
rfoot -8.2286 -16.2166
rtoes -24.7
lfemur -9.15513 -12.3737 -12.1842
ltibia 22.9598
lfoot -23.165 19.1472
ltoes -40.2792
209
root -9.50257 17.9052 -16.1612 376.735 92.5141 372.494
lowerback 5.98503 -0.587182 -0.424788
upperback -3.64355 -0.604921 2.66318
thorax -7.14556 -0.184921 3.10611
lowerneck -24.7318 -3.37302 -5.63935
upperneck 32.2442 -3.38522 3.54756
head 15.7386 -1.40712 1.84307
rclavicle 1.06785e-014 -1.82882e-014
rhumerus -35.3332 22.0299 -94.1985
rradius 97.7756
rwrist 0.696166
rhand -33.2104 -26.2445
rfingers 7.12502
rthumb -6.41734 -56.1273
lclavicle 1.06785e-014 -1.82882e-014
lhumerus -36.6852 -21.8411 99.3767
lradius 102.905
lwrist 41.3382
lhand -40.2405 14.5574
lfingers 7.12502
lthumb -13.1996 44.1195
rfemur 6.5725 3.39198 14.1497
rtibia -1.11319e-014
rfoot -8.22844 -16.1983
rtoes -24.4345
lfemur -9.08156 -12.3378 -12.3396
ltibia 22.9893
lfoot -23.2392 19.1307
ltoes -40.0795
210
root -9.49502 17.9048 -16.1735 374.567 92.4651 370.42
lowerback 5.90036 -0.529153 -0.41881
upperback -3.64276 -0.529593 2.63222
thorax -7.10013 -0.149606 3.0594
lowerneck -24.8225 -3.37661 -5.46896
upperneck 32.5302 -3.3474 3.26877
head 15.8835 -1.40708 1.70746
rclavicle -8.15638e-015 1.82882e-014
rhumerus -34.7085 21.5433 -93.8354
rradius 97.5896
rwrist 0.447868
rhand -33.0428 -26.2382
rfingers 7.12502
rthumb -6.2555 -56.1258
lclavicle -8.15638e-015 1.82882e-014
lhumerus -35.7496 -22.1614 99.3281
lradius 102.166
lwrist 41.0711
lhand -39.5084 14.7455
lfingers 7.12502
lthumb -12.4939 44.352
rfemur 6.68908 3.42811 13.9781
rtibia -1.27222e-014
rfoot -8.28713 -16.1689
rtoes -24.0048
lfemur -8.95427 -12.3911 -12.5383
ltibia 23.0134
lfoot -23.3773 19.117
ltoes -39.7544
211
root -9.48445 17.9028 -16.1863 372.253 92.443 368.211
lowerback 5.79694 -0.466588 -0.389251
upperback -3.63161 -0.446403 2.60182
thorax -7.03327 -0.111828 2.99871
lowerneck -24.9207 -3.3758 -5.27607
upperneck 32.7879 -3.2882 2.9267
head 16.0146 -1.4053 1.54329
rclavicle 1.0138e-014 1.59028e-015
rhumerus -34.1407 21.0193 -93.4921
rradius 97.4629
rwrist 0.242331
rhand -33.0123 -26.1997
rfingers 7.12502
rthumb -6.22607 -56.0882
lclavicle 1.0138e-014 1.59028e-015
lhumerus -34.8774 -22.4491 99.3315
lradius 101.418
lwrist 40.8361
lhand -38.8962 14.7533
lfingers 7.12502
lthumb -11.9036 44.3949
rfemur 6.84431 3.44228 13.811
rtibia -3.18055e-015
rfoot -8.37862 -16.1416
rtoes -23.5353
lfemur -8.80363 -12.4808 -12.7404
ltibia 23.0363
lfoot -23.5411 19.0866
ltoes -39.3689
212
root -9.47256 17.8999 -16.199 370.468 92.4472 366.52
lowerback 5.67462 -0.399504 -0.328061
upperback -3.61713 -0.353414 2.58503
thorax -6.95244 -0.0703017 2.93332
lowerneck -25.0014 -3.3862 -5.10199
upperneck 32.9818 -3.23319 2.56949
head 16.1123 -1.41102 1.37271
rclavicle 1.45361e-015 1.11319e-014
rhumerus -33.5587 20.5192 -93.1156
rradius 97.3539
rwrist 0.0622747
rhand -33.0377 -26.175
rfingers 7.12502
rthumb -6.25063 -56.0627
lclavicle 1.45361e-015 1.11319e-014
lhumerus -34.0598 -22.6901 99.3933
lradius 100.699
lwrist 40.6839
lhand -38.4906 14.6168
lfingers 7.12502
lthumb -11.5124 44.2806
rfemur 7.00293 3.43712 13.6845
rtibia 1.11319e-014
rfoot -8.46476 -16.1296
rtoes -23.1826
lfemur -8.66656 -12.5751 -12.9063
ltibia 23.0689
lfoot -23.6981 19.0482
ltoes -39.0074
213
root -9.46091 17.8971 -16.2112 369.649 92.4703 365.769
lowerback 5.53987 -0.330725 -0.234191
upperback -3.60577 -0.253612 2.58957
thorax -6.86801 -0.0260286 2.87139
lowerneck -25.0558 -3.40989 -4.95026
upperneck 33.1023 -3.19255 2.2166
head 16.1702 -1.42616 1.20299
rclavicle 2.59662e-015 -3.26007e-014
rhumerus -32.923 20.0832 -92.6712
rradius 97.2278
rwrist -0.104957
rhand -33.0118 -26.1945
rfingers 7.12502
rthumb -6.22563 -56.083
lclavicle 2.59662e-015 -3.26007e-014
lhumerus -33.2812 -22.8814 99.5111
lradius 100.039
lwrist 40.6177
lhand -38.3277 14.426
lfingers 7.12502
lthumb -11.3553 44.0985
rfemur 7.1341 3.41824 13.6193
rtibia 4.77083e-015
rfoot -8.51028 -16.1416
rtoes -23.0643
lfemur -8.57147 -12.6627 -13.0121
ltibia 23.1219
lfoot -23.8211 19.0332
ltoes -38.7712
